# xmcd
#
# Track frame offsets:
#   150
#   14663
#   29745
#   43430
#   58418
#   72008
#   86368
#   101700
#   115788
#   129145
#   143885
#   158118
#   169975
#   184620
#   198403
#   210510
#   222538
#   236198
#   255828
#   268333
#
# Disc length: 3825 seconds
#
# Revision: 6
# Processed by: cddbd v1.5.1PL0 Copyright (c) Steve Scherf et al.
# Submitted via: Media_Universe 3.0
#
DISCID=310eef14
DTITLE=Various Artist - The Story of the Blues
DYEAR=1994
DGENRE=Blues
TTITLE0=Bessie Smith - St. Louis Blues
TTITLE1=Blind Willie Johnson - Dark Was The Night (Cold Was the Ground)
TTITLE2=Blind Lemon Jefferson - Match Box Blues
TTITLE3=Bessie Smith - Backwater Blues
TTITLE4=Sylvester Weaver - Guitar Rag
TTITLE5=Blind Willie Johnson - It's Nobody's Fault But Mine
TTITLE6=Mississippi John Hurt - Frankie
TTITLE7=Lonnie Johnson and Eddie Lang - A Handfull Of Riffs
TTITLE8=Tampa Red and Georgia Tom - You Can't Get That Stuff No More
TTITLE9=Lonnie Johnson - No More Troubles Now
TTITLE10=Charley Patton - High Sheriff Blues
TTITLE11=Robert Johnson - Come On In My Kitchen
TTITLE12=Blind Boy Fuller - Baby You Gotta Change Your Mind
TTITLE13=Memphis Minnie - I'm A Bad Luck Woman
TTITLE14=Robert Johnson - Cross Road Blues
TTITLE15=Bukka White - Parchman Farm Blues
TTITLE16=Leadbelly - Roberta
TTITLE17=Son House - Death Letter
TTITLE18=Muddy Waters - Hard Day Blues
TTITLE19=Baby, Please Don't Go
EXTD=
EXTT0=
EXTT1=
EXTT2=
EXTT3=
EXTT4=
EXTT5=
EXTT6=
EXTT7=
EXTT8=
EXTT9=
EXTT10=
EXTT11=
EXTT12=
EXTT13=
EXTT14=
EXTT15=
EXTT16=
EXTT17=
EXTT18=
EXTT19=
PLAYORDER=
